HIERARCHY
ROOT Hips
{
  OFFSET 50.1642 54.9587 -8.37457
  CHANNELS 6 Xposition Yposition Zposition Zrotation Xrotation Yrotation
  JOINT spine
  {
    OFFSET 0 5.95438 0.342407
    CHANNELS 3 Zrotation Xrotation Yrotation
    JOINT spine1
    {
      OFFSET 0 8.85602 0
      CHANNELS 3 Zrotation Xrotation Yrotation
      JOINT spine2
      {
        OFFSET 0 8.48567 0
        CHANNELS 3 Zrotation Xrotation Yrotation
        JOINT Neck
        {
          OFFSET 0 21.7863 1.0387
          CHANNELS 3 Zrotation Xrotation Yrotation
          JOINT Head
          {
            OFFSET 0 6.5822 0
            CHANNELS 3 Zrotation Xrotation Yrotation
            End Site
            {
              OFFSET 0 15.9326 -5.25436
            }
          }
        }
        JOINT RightShoulder
        {
          OFFSET -3.57307 9.16386 -0.497525
          CHANNELS 3 Zrotation Xrotation Yrotation
          JOINT RightArm
          {
            OFFSET 0 12.0192 0
            CHANNELS 3 Zrotation Xrotation Yrotation
            JOINT RightArmRoll
            {
              OFFSET 0 6.06755 0
              CHANNELS 3 Zrotation Xrotation Yrotation
              JOINT RightForeArm
              {
                OFFSET 0 17.6726 0
                CHANNELS 3 Zrotation Xrotation Yrotation
                JOINT RightForeArmRoll
                {
                  OFFSET 0 6.80872 0
                  CHANNELS 3 Zrotation Xrotation Yrotation
                  JOINT RightHand
                  {
                    OFFSET 0 13.6636 0
                    CHANNELS 3 Zrotation Xrotation Yrotation
                    End Site
                    {
                      OFFSET 0 0 0
                    }
                  }
                }
              }
            }
          }
        }
        JOINT LeftShoulder
        {
          OFFSET 3.57307 9.16386 -0.497525
          CHANNELS 3 Zrotation Xrotation Yrotation
          JOINT LeftArm
          {
            OFFSET 0 12.0192 0
            CHANNELS 3 Zrotation Xrotation Yrotation
            JOINT LeftArmRoll
            {
              OFFSET 0 6.06755 0
              CHANNELS 3 Zrotation Xrotation Yrotation
              JOINT LeftForeArm
              {
                OFFSET 0 17.6726 0
                CHANNELS 3 Zrotation Xrotation Yrotation
                JOINT LeftForeArmRoll
                {
                  OFFSET 0 6.80873 0
                  CHANNELS 3 Zrotation Xrotation Yrotation
                  JOINT LeftHand
                  {
                    OFFSET 0 13.6636 0
                    CHANNELS 3 Zrotation Xrotation Yrotation
                    End Site
                    {
                      OFFSET 0 0 0
                    }
                  }
                }
              }
            }
          }
        }
      }
    }
  }
  JOINT RightUpLeg
  {
    OFFSET -5.27774 -0.967797 -0.811858
    CHANNELS 3 Zrotation Xrotation Yrotation
    JOINT RightUpLegRoll
    {
      OFFSET 0 16.0214 0
      CHANNELS 3 Zrotation Xrotation Yrotation
      JOINT RightLeg
      {
        OFFSET 0 -19.8401 0
        CHANNELS 3 Zrotation Xrotation Yrotation
        JOINT RightLegRoll
        {
          OFFSET 0 19.905 0
          CHANNELS 3 Zrotation Xrotation Yrotation
          JOINT RightFoot
          {
            OFFSET 0 16.5675 0
            CHANNELS 3 Zrotation Xrotation Yrotation
            JOINT RightToeBase
            {
              OFFSET 0 13.8496 0
              CHANNELS 3 Zrotation Xrotation Yrotation
              End Site
              {
                OFFSET 0.00587034 6.70728 -0.773116
              }
            }
          }
        }
      }
    }
  }
  JOINT LeftUpLeg
  {
    OFFSET 5.27774 -0.967797 -0.811858
    CHANNELS 3 Zrotation Xrotation Yrotation
    JOINT LeftUpLegRoll
    {
      OFFSET 0 16.0215 0
      CHANNELS 3 Zrotation Xrotation Yrotation
      JOINT LeftLeg
      {
        OFFSET 0 19.84 0
        CHANNELS 3 Zrotation Xrotation Yrotation
        JOINT LeftLegRoll
        {
          OFFSET 0 20.089 0
          CHANNELS 3 Zrotation Xrotation Yrotation
          JOINT LeftFoot
          {
            OFFSET 0 16.3835 0
            CHANNELS 3 Zrotation Xrotation Yrotation
            JOINT LeftToeBase
            {
              OFFSET 0 13.8496 0
              CHANNELS 3 Zrotation Xrotation Yrotation
              End Site
              {
                OFFSET -0.0263083 6.70727 -0.773117
              }
            }
          }
        }
      }
    }
  }
}
MOTION
Frames: 9
Frame Time: 0.00208333
51.553 84.6001 30.5498 0.602817 -6.65097 -0.623096 -0.0931623 -0.907467 0.02623 -0.189073 2.18783 0.0602168 -0.189878 3.8329 0.0610408 -1.95326 29.3272 1.81794 -1.68747 13.1468 0.960693 78.0744 -0.92138 -2.50101 89.9649 11.1434 9.09709 -1.65424e-006 2.53546e-007 1.07754e-005 -3.64468 -0.0371366 -1.99317 -6.73689e-006 4.9653e-007 -3.01161 8.03009 -4.95136 0.697629 -66.8501 -4.74104 3.40914 -104.268 6.60679 0.548402 2.07225e-006 6.08194e-007 -2.69257e-007 3.65103 -0.0246876 1.99232 3.61723e-006 -4.49803e-007 3.01161 -8.03008 -4.9514 -0.697617 176.946 -2.47768 5.00217 180 7.01519e-015 178.809 176.167 6.38594 179.97 -2.94178e-006 4.08915e-006 0.0642954 -17.841 66.889 18.6471 8.13649 25.2327 -3.48773 -178.852 -0.0747362 -0.220992 4.54188e-006 -4.6773e-006 -1.16747 -1.9777 -12.3194 0.152771 -6.12739e-006 7.78811e-007 -0.224226 20.1353 69.6836 -21.0488 -8.13649 25.2327 3.48774 
51.5398 84.6026 30.5316 0.594101 -6.63133 -0.592987 -0.0903292 -0.901787 0.026279 -0.183205 2.19919 0.060212 -0.184011 3.84426 0.0609642 -2.01154 29.4003 1.83499 -1.64753 13.1768 0.947872 78.0318 -0.908188 -2.49144 90.0124 11.1366 9.05946 -1.65424e-006 2.53546e-007 1.07754e-005 -3.64468 -0.0371366 -1.99317 -6.73689e-006 4.9653e-007 -3.01161 8.03009 -4.95136 0.697629 -66.8933 -4.75914 3.42143 -104.269 6.66193 0.570076 2.07225e-006 6.08194e-007 -2.69257e-007 3.65103 -0.0246876 1.99232 3.61723e-006 -4.49803e-007 3.01161 -8.03008 -4.9514 -0.697617 176.965 -2.44626 4.98855 180 7.01519e-015 178.809 176.17 6.38707 179.97 -2.94178e-006 4.08915e-006 0.0642954 -17.8405 66.8884 18.6466 8.13649 25.2327 -3.48773 -178.839 -0.0153179 -0.22266 4.54188e-006 -4.6773e-006 -1.1671 -1.97347 -12.3512 0.153903 -6.12739e-006 7.78811e-007 -0.224556 20.1381 69.6864 -21.0512 -8.13649 25.2327 3.48774 
51.5356 84.6029 30.5086 0.585054 -6.61184 -0.563354 -0.0874904 -0.896148 0.0263275 -0.177318 2.21047 0.0601977 -0.178125 3.85554 0.0608701 -2.06964 29.4729 1.85163 -1.60711 13.2072 0.934766 77.9895 -0.895169 -2.48198 90.0581 11.1322 9.02263 -1.65424e-006 2.53546e-007 1.07754e-005 -3.64468 -0.0371366 -1.99317 -6.73689e-006 4.9653e-007 -3.01161 8.03009 -4.95136 0.697629 -66.937 -4.7784 3.43436 -104.27 6.71698 0.591211 2.07225e-006 6.08194e-007 -2.69257e-007 3.65103 -0.0246876 1.99232 3.61723e-006 -4.49803e-007 3.01161 -8.03008 -4.9514 -0.697617 176.984 -2.41502 4.9749 180 7.0152e-015 178.81 176.173 6.38821 179.97 -2.94178e-006 4.08915e-006 0.0642954 -17.8401 66.8878 18.6461 8.13649 25.2327 -3.48773 -178.824 0.0440612 -0.22467 4.54188e-006 -4.6773e-006 -1.16676 -1.96935 -12.3837 0.15503 -6.12739e-006 7.78811e-007 -0.224894 20.1413 69.6896 -21.054 -8.13649 25.2327 3.48774 
51.5445 84.602 30.4801 0.575768 -6.59245 -0.534055 -0.0846474 -0.890538 0.0263755 -0.171417 2.22169 0.0601767 -0.172225 3.86676 0.0607638 -2.12762 29.5453 1.86798 -1.56633 13.2379 0.921459 77.9474 -0.882271 -2.4726 90.1025 11.1294 8.98636 -1.65424e-006 2.53546e-007 1.07754e-005 -3.64468 -0.0371366 -1.99317 -6.73689e-006 4.9653e-007 -3.01161 8.03009 -4.95136 0.697629 -66.981 -4.79847 3.44774 -104.27 6.77195 0.611971 2.07225e-006 6.08194e-007 -2.69257e-007 3.65103 -0.0246876 1.99232 3.61723e-006 -4.49803e-007 3.01161 -8.03008 -4.9514 -0.697617 177.003 -2.38391 4.96123 180 7.0152e-015 178.811 176.175 6.38939 179.97 -2.94178e-006 4.08915e-006 0.0642954 -17.8396 66.8872 18.6456 8.13649 25.2327 -3.48773 -178.81 0.103413 -0.22692 4.54188e-006 -4.6773e-006 -1.16643 -1.96529 -12.4167 0.156153 -6.12739e-006 7.78811e-007 -0.22524 20.1447 69.693 -21.057 -8.13649 25.2327 3.48774 
51.5273 84.6023 30.4615 0.566338 -6.57313 -0.504947 -0.081802 -0.884944 0.0264233 -0.165509 2.23288 0.0601519 -0.166318 3.87795 0.0606505 -2.18555 29.6175 1.88418 -1.52536 13.2688 0.908035 77.9054 -0.869442 -2.46327 90.1462 11.1275 8.9504 -1.65424e-006 2.53546e-007 1.07754e-005 -3.64468 -0.0371366 -1.99317 -6.73689e-006 4.9653e-007 -3.01161 8.03009 -4.95136 0.697629 -67.0251 -4.81901 3.46138 -104.27 6.82688 0.632519 2.07225e-006 6.08194e-007 -2.69257e-007 3.65103 -0.0246876 1.99232 3.61723e-006 -4.49803e-007 3.01161 -8.03008 -4.9514 -0.697617 177.023 -2.35287 4.94755 180 7.0152e-015 178.811 176.178 6.39055 179.969 -2.94178e-006 4.08915e-006 0.0642954 -17.8391 66.8865 18.6451 8.13649 25.2327 -3.48773 -178.795 0.162749 -0.229308 4.54188e-006 -4.6773e-006 -1.16611 -1.96127 -12.45 0.157275 -6.12739e-006 7.78811e-007 -0.225589 20.1482 69.6965 -21.0601 -8.13649 25.2327 3.48774 
51.5184 84.5984 30.4452 0.556857 -6.55381 -0.475888 -0.0789561 -0.879354 0.0264711 -0.159599 2.24406 0.0601261 -0.160409 3.88913 0.0605355 -2.2435 29.6897 1.90036 -1.48432 13.2998 0.89458 77.8635 -0.85663 -2.45395 90.1897 11.1258 8.91452 -1.65424e-006 2.53546e-007 1.07754e-005 -3.64468 -0.0371366 -1.99317 -6.73689e-006 4.9653e-007 -3.01161 8.03009 -4.95136 0.697629 -67.0693 -4.83966 3.47508 -104.27 6.88181 0.653017 2.07225e-006 6.08194e-007 -2.69257e-007 3.65103 -0.0246876 1.99232 3.61723e-006 -4.49803e-007 3.01161 -8.03008 -4.9514 -0.697617 177.042 -2.32184 4.93387 180 7.0152e-015 178.812 176.18 6.39174 179.969 -2.94178e-006 4.08915e-006 0.0642954 -17.8386 66.8859 18.6445 8.13649 25.2327 -3.48773 -178.78 0.222081 -0.23173 4.54188e-006 -4.6773e-006 -1.1658 -1.95725 -12.4833 0.158396 -6.12739e-006 7.78811e-007 -0.225939 20.1518 69.7001 -21.0632 -8.13649 25.2327 3.48774 
51.5242 84.596 30.4181 0.547419 -6.53447 -0.446737 -0.0761114 -0.873756 0.026519 -0.153692 2.25526 0.0601022 -0.154503 3.90033 0.0604239 -2.30154 29.7619 1.91666 -1.44336 13.3306 0.881178 77.8215 -0.843783 -2.44461 90.2336 11.1237 8.87849 -1.65424e-006 2.53546e-007 1.07754e-005 -3.64468 -0.0371366 -1.99317 -6.73689e-006 4.9653e-007 -3.01161 8.03009 -4.95136 0.697629 -67.1134 -4.86008 3.48866 -104.27 6.93675 0.673629 2.07225e-006 6.08194e-007 -2.69257e-007 3.65103 -0.0246876 1.99232 3.61723e-006 -4.49803e-007 3.01161 -8.03008 -4.9514 -0.697617 177.061 -2.29078 4.92019 180 7.0152e-015 178.812 176.183 6.39291 179.969 -2.94178e-006 4.08915e-006 0.0642954 -17.8381 66.8853 18.644 8.13649 25.2327 -3.48773 -178.765 0.281421 -0.234084 4.54188e-006 -4.6773e-006 -1.16547 -1.95322 -12.5165 0.159519 -6.12739e-006 7.78811e-007 -0.226287 20.1553 69.7037 -21.0663 -8.13649 25.2327 3.48774 
51.5316 84.5954 30.3902 0.538116 -6.51504 -0.417353 -0.0732696 -0.868137 0.0265671 -0.147796 2.26649 0.0600831 -0.148607 3.91157 0.0603211 -2.35976 29.8344 1.9332 -1.40263 13.3613 0.867915 77.7793 -0.830849 -2.43521 90.2784 11.1203 8.84206 -1.65424e-006 2.53546e-007 1.07754e-005 -3.64468 -0.0371366 -1.99317 -6.73689e-006 4.9653e-007 -3.01161 8.03009 -4.95136 0.697629 -67.1572 -4.87992 3.50192 -104.27 6.99174 0.69452 2.07225e-006 6.08194e-007 -2.69257e-007 3.65103 -0.0246876 1.99232 3.61723e-006 -4.49803e-007 3.01161 -8.03008 -4.9514 -0.697617 177.08 -2.25962 4.90654 180 7.0152e-015 178.813 176.185 6.39407 179.969 -2.94178e-006 4.08915e-006 0.0642954 -17.8377 66.8846 18.6435 8.13649 25.2327 -3.48773 -178.751 0.34078 -0.236267 4.54188e-006 -4.6773e-006 -1.16514 -1.94914 -12.5493 0.160645 -6.12739e-006 7.78811e-007 -0.226631 20.1586 69.707 -21.0692 -8.13649 25.2327 3.48774 
51.5196 84.5955 30.3694 0.52904 -6.49549 -0.387592 -0.0704325 -0.862486 0.0266157 -0.141914 2.2778 0.0600717 -0.142726 3.92287 0.0602323 -2.41822 29.9071 1.95013 -1.36226 13.3915 0.854875 77.7369 -0.817777 -2.42571 90.3246 11.1152 8.805 -1.65424e-006 2.53546e-007 1.07754e-005 -3.64468 -0.0371366 -1.99317 -6.73689e-006 4.9653e-007 -3.01161 8.03009 -4.95136 0.697629 -67.2007 -4.89882 3.51466 -104.271 7.0468 0.715851 2.07225e-006 6.08194e-007 -2.69257e-007 3.65103 -0.0246876 1.99232 3.61723e-006 -4.49803e-007 3.01161 -8.03008 -4.9514 -0.697617 177.099 -2.22832 4.89291 180 7.01521e-015 178.814 176.188 6.39522 179.969 -2.94178e-006 4.08915e-006 0.0642954 -17.8372 66.884 18.643 8.13649 25.2327 -3.48773 -178.736 0.400171 -0.238177 4.54188e-006 -4.6773e-006 -1.16479 -1.94497 -12.5816 0.161776 -6.12739e-006 7.78811e-007 -0.226966 20.1616 69.7101 -21.0718 -8.13649 25.2327 3.48774 
